<svg xmlns="http://www.w3.org/2000/svg" width="1200" height="680" viewBox="0 0 1200 680" fill="none">
  <rect width="1200" height="680" rx="32" fill="#eefcf1"/>
  <rect x="54" y="54" width="1092" height="572" rx="28" fill="white" stroke="#DDE7F3" stroke-width="4"/>
  <circle cx="222" cy="262" r="92" fill="#1d5b35" opacity="0.12"/>
  <rect x="160" y="196" width="124" height="156" rx="24" fill="#1d5b35" opacity="0.88"/>
  <circle cx="222" cy="176" r="52" fill="#1d5b35" opacity="0.88"/>
  <circle cx="202" cy="168" r="8" fill="white"/>
  <circle cx="242" cy="168" r="8" fill="white"/>
  <rect x="190" y="205" width="64" height="20" rx="10" fill="white" opacity="0.92"/>
  <rect x="178" y="372" width="88" height="96" rx="16" fill="#1d5b35" opacity="0.88"/>
  <rect x="154" y="462" width="38" height="112" rx="12" fill="#1d5b35" opacity="0.88"/>
  <rect x="252" y="462" width="38" height="112" rx="12" fill="#1d5b35" opacity="0.88"/>
  <rect x="330" y="126" width="714" height="148" rx="26" fill="#FFFFFF" stroke="#DDE7F3" stroke-width="4"/>
  <text x="372" y="188" font-size="54" font-family="'PingFang SC','Microsoft YaHei',sans-serif" font-weight="700" fill="#102033">病句手术台</text>
  <text x="372" y="242" font-size="28" font-family="'PingFang SC','Microsoft YaHei',sans-serif" fill="#62748A">“请把这句话救活，不然它就语法失血过多。”</text>
  <rect x="360" y="338" width="610" height="190" rx="24" fill="#F8FBFF" stroke="#DDE7F3" stroke-width="4"/>
  <text x="398" y="404" font-size="30" font-family="'PingFang SC','Microsoft YaHei',sans-serif" font-weight="700" fill="#102033">课堂玩法</text>
  <text x="398" y="454" font-size="24" font-family="'PingFang SC','Microsoft YaHei',sans-serif" fill="#62748A">• 先读图，再说机制，不许只喊大词</text>
  <text x="398" y="492" font-size="24" font-family="'PingFang SC','Microsoft YaHei',sans-serif" fill="#62748A">• 答案要落到“原因链 + 做法目的”</text>
  <text x="398" y="530" font-size="24" font-family="'PingFang SC','Microsoft YaHei',sans-serif" fill="#62748A">• 这是漫画化情境，不是现实暴力模拟</text>
  <rect x="882" y="554" width="176" height="46" rx="23" fill="#1d5b35" opacity="0.14"/>
  <text x="918" y="585" font-size="22" font-family="'PingFang SC','Microsoft YaHei',sans-serif" fill="#1d5b35">高考系统 v11</text>
</svg>