<svg xmlns="http://www.w3.org/2000/svg" width="1200" height="680" viewBox="0 0 1200 680" fill="none">
<rect width="1200" height="680" rx="32" fill="#fff8e8"/>
<rect x="54" y="54" width="1092" height="572" rx="28" fill="white" stroke="#DDE7F3" stroke-width="4"/>
<circle cx="228" cy="248" r="104" fill="#b54708" opacity="0.12"/>
<rect x="150" y="168" width="156" height="208" rx="30" fill="#b54708" opacity="0.9"/>
<circle cx="228" cy="156" r="54" fill="#b54708" opacity="0.9"/>
<circle cx="208" cy="148" r="8" fill="white"/>
<circle cx="248" cy="148" r="8" fill="white"/>
<rect x="188" y="186" width="80" height="22" rx="11" fill="white" opacity="0.95"/>
<rect x="170" y="392" width="116" height="76" rx="18" fill="#b54708" opacity="0.9"/>
<rect x="156" y="464" width="40" height="112" rx="12" fill="#b54708" opacity="0.9"/>
<rect x="260" y="464" width="40" height="112" rx="12" fill="#b54708" opacity="0.9"/>
<rect x="334" y="116" width="720" height="170" rx="26" fill="#FFFFFF" stroke="#DDE7F3" stroke-width="4"/>
<text x="372" y="182" font-size="52" font-family="PingFang SC,Microsoft YaHei,sans-serif" font-weight="700" fill="#102033">成语迷宫</text>
<text x="372" y="230" font-size="28" font-family="PingFang SC,Microsoft YaHei,sans-serif" fill="#62748A">成语题不要凭脸熟，先逐字翻译</text>
<rect x="356" y="326" width="634" height="218" rx="24" fill="#F8FBFF" stroke="#DDE7F3" stroke-width="4"/>
<text x="396" y="386" font-size="30" font-family="PingFang SC,Microsoft YaHei,sans-serif" font-weight="700" fill="#102033">课堂玩法</text>
<text x="396" y="432" font-size="24" font-family="PingFang SC,Microsoft YaHei,sans-serif" fill="#62748A">• 先回到本义，再看语境对象</text>
<text x="396" y="470" font-size="24" font-family="PingFang SC,Microsoft YaHei,sans-serif" fill="#62748A">• 从根上解决问题，优先想“釜底抽薪”</text>
<text x="396" y="508" font-size="24" font-family="PingFang SC,Microsoft YaHei,sans-serif" fill="#62748A">• 别把会背成语当成会用成语</text>
<rect x="864" y="558" width="194" height="46" rx="23" fill="#b54708" opacity="0.14"/>
<text x="904" y="588" font-size="22" font-family="PingFang SC,Microsoft YaHei,sans-serif" fill="#b54708">高考系统 v14</text>
</svg>